<svg width="240" height="50" viewBox="0 0 240 50" fill="none" xmlns="http://www.w3.org/2000/svg">
<g clip-path="url(#clip0_30_20)">
<path fill-rule="evenodd" clip-rule="evenodd" d="M239.77 30.4134C239.764 25.2205 237.699 20.2419 234.027 16.5699C230.355 12.898 225.376 10.8325 220.183 10.8269H140.814C135.62 10.8269 130.638 12.8905 126.964 16.5637C123.291 20.2369 121.228 25.2188 121.228 30.4134C121.228 35.6081 123.291 40.59 126.964 44.2632C130.638 47.9364 135.62 50 140.814 50H220.183C225.376 49.9943 230.355 47.929 234.027 44.257C237.699 40.585 239.764 35.6064 239.77 30.4134Z" fill="#FAE700"/>
<path fill-rule="evenodd" clip-rule="evenodd" d="M0.0213623 30.989V3.28223C0.0213623 2.38913 0.376139 1.5326 1.00766 0.901088C1.63917 0.269571 2.49568 -0.0852051 3.38878 -0.0852051C4.28188 -0.0852051 5.13841 0.269571 5.76993 0.901088C6.40145 1.5326 6.75622 2.38913 6.75622 3.28223V16.7946C9.78027 14.5193 13.4797 13.3233 17.2634 13.3978C21.0471 13.4722 24.6966 14.8129 27.6288 17.2054C30.561 19.5979 32.6066 22.9042 33.4387 26.596C34.2708 30.2878 33.8414 34.152 32.2192 37.5711C30.5969 40.9901 27.8754 43.7668 24.4895 45.4572C21.1037 47.1477 17.2489 47.6544 13.5411 46.8965C9.8334 46.1385 6.48673 44.1596 4.03593 41.276C1.58513 38.3923 0.171649 34.7704 0.0213623 30.989ZM97.6556 13.4271C101.001 13.4145 104.275 14.395 107.063 16.2444C109.851 18.0938 112.027 20.7289 113.316 23.8161C114.605 26.9032 114.949 30.3035 114.304 33.5861C113.659 36.8688 112.054 39.8863 109.693 42.2564C107.332 44.6264 104.321 46.2425 101.04 46.8998C97.7602 47.5571 94.3587 47.2262 91.2667 45.9489C88.1747 44.6716 85.5313 42.5054 83.6713 39.7246C81.8114 36.9439 80.8185 33.6737 80.8185 30.3283C80.8128 25.8552 82.5829 21.5627 85.7398 18.3937C88.8968 15.2248 93.1825 13.4384 97.6556 13.4271ZM67.3487 43.8406C64.3065 46.1313 60.5798 47.3274 56.7727 47.2351C52.9656 47.1427 49.3012 45.7674 46.3736 43.3319C43.446 40.8964 41.4267 37.5436 40.6431 33.8168C39.8594 30.0901 40.3574 26.208 42.0561 22.7997C43.7549 19.3913 46.555 16.6566 50.0025 15.0388C53.45 13.421 57.3428 13.0149 61.05 13.8863C64.7572 14.7577 68.0614 16.8556 70.427 19.8399C72.7927 22.8242 74.0812 26.5201 74.0836 30.3283V43.8406C74.0836 44.2828 73.9965 44.7207 73.8273 45.1293C73.658 45.5378 73.41 45.9091 73.0973 46.2218C72.7846 46.5345 72.4134 46.7825 72.0048 46.9517C71.5963 47.121 71.1584 47.2081 70.7162 47.2081C70.2739 47.2081 69.8361 47.121 69.4275 46.9517C69.019 46.7825 68.6477 46.5345 68.335 46.2218C68.0223 45.9091 67.7743 45.5378 67.605 45.1293C67.4358 44.7207 67.3487 44.2828 67.3487 43.8406ZM16.8372 20.3325C18.8464 20.3241 20.8128 20.9125 22.4872 22.023C24.1616 23.1335 25.4685 24.7162 26.2423 26.5705C27.016 28.4247 27.2218 30.4669 26.8334 32.4382C26.4451 34.4095 25.4801 36.2211 24.0609 37.6434C22.6417 39.0656 20.8321 40.0343 18.8617 40.4268C16.8912 40.8193 14.8485 40.6179 12.9927 39.848C11.1368 39.0782 9.55134 37.7746 8.43727 36.1026C7.32321 34.4305 6.73072 32.4653 6.73492 30.4561C6.73491 27.7749 7.79858 25.2031 9.69251 23.3052C11.5865 21.4073 14.156 20.3382 16.8372 20.3325ZM97.6556 20.3325C99.6648 20.3241 101.631 20.9125 103.306 22.023C104.98 23.1335 106.287 24.7162 107.061 26.5705C107.834 28.4247 108.04 30.4669 107.652 32.4382C107.263 34.4095 106.299 36.2211 104.879 37.6434C103.46 39.0656 101.651 40.0343 99.6801 40.4268C97.7096 40.8193 95.6669 40.6179 93.8111 39.848C91.9552 39.0782 90.3697 37.7746 89.2557 36.1026C88.1416 34.4305 87.5491 32.4653 87.5533 30.4561C87.5533 27.7749 88.617 25.2031 90.5109 23.3052C92.4049 21.4073 94.9744 20.3382 97.6556 20.3325ZM57.1612 20.3325C59.1703 20.3241 61.1368 20.9125 62.8112 22.023C64.4855 23.1335 65.7925 24.7162 66.5662 26.5705C67.34 28.4247 67.5457 30.4669 67.1574 32.4382C66.7691 34.4095 65.8041 36.2211 64.3849 37.6434C62.9657 39.0656 61.1561 40.0343 59.1856 40.4268C57.2151 40.8193 55.1725 40.6179 53.3166 39.848C51.4608 39.0782 49.8753 37.7746 48.7612 36.1026C47.6472 34.4305 47.0547 32.4653 47.0589 30.4561C47.0589 27.7749 48.1225 25.2031 50.0165 23.3052C51.9104 21.4073 54.4799 20.3382 57.1612 20.3325Z" fill="white"/>
<path d="M146.952 37.5319C147.895 37.5378 148.829 37.3519 149.697 36.9855C150.565 36.6191 151.35 36.0799 152.003 35.4006C152.114 35.2881 152.201 35.1548 152.259 35.0085C152.318 34.8621 152.347 34.7057 152.344 34.5481C152.344 34.2259 152.216 33.9169 151.989 33.6891C151.761 33.4613 151.452 33.3333 151.13 33.3333C150.965 33.3337 150.803 33.3679 150.653 33.4339C150.502 33.4999 150.367 33.5963 150.256 33.7169C149.834 34.1724 149.323 34.5362 148.755 34.7855C148.187 35.0349 147.573 35.1645 146.952 35.1662C145.697 35.1662 144.494 34.6677 143.607 33.7804C142.719 32.8931 142.221 31.6896 142.221 30.4347C142.221 29.1799 142.719 27.9764 143.607 27.0891C144.494 26.2018 145.697 25.7033 146.952 25.7033C147.573 25.705 148.187 25.8346 148.755 26.0839C149.323 26.3333 149.834 26.697 150.256 27.1525C150.367 27.2731 150.502 27.3695 150.653 27.4355C150.803 27.5015 150.965 27.5358 151.13 27.5362C151.452 27.5362 151.761 27.4082 151.989 27.1804C152.216 26.9525 152.344 26.6435 152.344 26.3213C152.347 26.1638 152.318 26.0073 152.259 25.861C152.201 25.7146 152.114 25.5814 152.003 25.4688C151.35 24.7896 150.565 24.2503 149.697 23.8839C148.829 23.5175 147.895 23.3316 146.952 23.3375C145.064 23.3375 143.254 24.0875 141.919 25.4225C140.584 26.7575 139.834 28.5681 139.834 30.456C139.834 32.344 140.584 34.1546 141.919 35.4896C143.254 36.8246 145.064 37.5745 146.952 37.5745V37.5319Z" fill="#341656"/>
<path d="M166.752 35.6139L161.658 24.1049C161.564 23.8802 161.406 23.6882 161.203 23.5532C161 23.4182 160.762 23.3462 160.518 23.3462C160.274 23.3462 160.036 23.4182 159.833 23.5532C159.63 23.6882 159.472 23.8802 159.378 24.1049L154.284 35.6139C154.218 35.7636 154.182 35.9248 154.179 36.0884C154.176 36.2519 154.204 36.4144 154.264 36.5668C154.323 36.7192 154.412 36.8584 154.525 36.9765C154.638 37.0946 154.774 37.1892 154.923 37.255C155.073 37.3207 155.234 37.3564 155.398 37.3599C155.561 37.3633 155.724 37.3345 155.876 37.2752C156.029 37.2158 156.168 37.127 156.286 37.0138C156.404 36.9006 156.499 36.7653 156.564 36.6156L157.566 34.2925H163.576L164.599 36.6156C164.73 36.9143 164.974 37.1492 165.277 37.2689C165.581 37.3887 165.919 37.3837 166.219 37.255C166.519 37.1197 166.754 36.8719 166.874 36.565C166.994 36.2582 166.988 35.9167 166.858 35.6139H166.752ZM158.653 31.8202L160.529 27.5576L162.383 31.8202H158.653Z" fill="#341656"/>
<path d="M175.405 37.5321C177.408 37.5321 180.989 36.7435 180.989 33.376C180.989 30.0086 177.984 29.6889 175.405 29.1135C173.7 28.7938 172.549 28.6446 172.549 27.515C172.549 26.3854 173.359 25.5755 175.426 25.5755C176.715 25.6023 177.976 25.9542 179.092 26.5985C179.263 26.6903 179.452 26.7414 179.646 26.7477C179.961 26.7422 180.261 26.6148 180.484 26.3921C180.707 26.1695 180.834 25.869 180.84 25.5542C180.839 25.338 180.781 25.1259 180.673 24.9389C180.564 24.7519 180.409 24.5966 180.222 24.4886C178.794 23.6838 177.192 23.2376 175.554 23.1885C173.082 23.1885 170.077 24.4246 170.077 27.6216C170.077 30.8185 173.295 31.4153 175.405 31.7563C177.515 32.0973 178.517 32.2891 178.517 33.3547C178.517 34.7827 176.385 35.0384 175.49 35.0384C174.137 34.9822 172.816 34.61 171.633 33.9515C171.45 33.8558 171.246 33.809 171.04 33.8156C170.834 33.8223 170.633 33.8822 170.457 33.9895C170.281 34.0968 170.136 34.2479 170.036 34.4279C169.935 34.608 169.883 34.811 169.885 35.0171C169.887 35.2301 169.946 35.4387 170.054 35.622C170.163 35.8053 170.317 35.9569 170.503 36.0615C172 36.9133 173.683 37.3819 175.405 37.4255V37.5321Z" fill="#341656"/>
<path d="M185.87 37.3828C186.197 37.3828 186.512 37.2525 186.744 37.0207C186.975 36.7889 187.106 36.4745 187.106 36.1466V24.8082C187.106 24.4803 186.975 24.1659 186.744 23.9341C186.512 23.7023 186.197 23.572 185.87 23.572C185.542 23.572 185.227 23.7023 184.995 23.9341C184.764 24.1659 184.633 24.4803 184.633 24.8082V36.1466C184.633 36.4745 184.764 36.7889 184.995 37.0207C185.227 37.2525 185.542 37.3828 185.87 37.3828Z" fill="#341656"/>
<path d="M202.067 23.5081C201.74 23.5081 201.425 23.6383 201.193 23.8701C200.961 24.1019 200.831 24.4164 200.831 24.7442V32.907L192.988 24.0195L192.818 23.8277C192.6 23.6527 192.33 23.5552 192.05 23.5507C191.723 23.5507 191.408 23.6809 191.176 23.9127C190.944 24.1445 190.814 24.459 190.814 24.7868V36.1253C190.814 36.4531 190.944 36.7675 191.176 36.9994C191.408 37.2312 191.723 37.3614 192.05 37.3614C192.378 37.3614 192.693 37.2312 192.924 36.9994C193.156 36.7675 193.287 36.4531 193.287 36.1253V27.8985L201.023 36.6794C201.127 36.8858 201.285 37.0603 201.48 37.1841C201.675 37.308 201.9 37.3766 202.131 37.3827C202.461 37.3771 202.776 37.2422 203.007 37.007C203.238 36.7718 203.368 36.4551 203.367 36.1253V24.7868C203.367 24.459 203.237 24.1445 203.005 23.9127C202.774 23.6809 202.459 23.5507 202.131 23.5507L202.067 23.5081Z" fill="#341656"/>
<path d="M213.939 37.5319C215.344 37.5193 216.714 37.0911 217.876 36.3012C219.038 35.5114 219.941 34.3953 220.47 33.0935C220.999 31.7917 221.13 30.3625 220.849 28.9858C220.567 27.6092 219.884 26.3468 218.886 25.3577C217.888 24.3685 216.619 23.6969 215.24 23.4273C213.861 23.1578 212.433 23.3025 211.136 23.8431C209.839 24.3837 208.731 25.2961 207.952 26.4653C207.172 27.6345 206.756 29.0082 206.756 30.4134C206.768 32.3089 207.53 34.1227 208.876 35.4571C210.223 36.7914 212.043 37.5376 213.939 37.5319ZM213.939 35.1448C213.003 35.1448 212.088 34.8674 211.31 34.3475C210.532 33.8276 209.926 33.0886 209.567 32.224C209.209 31.3595 209.116 30.4081 209.298 29.4903C209.481 28.5725 209.931 27.7294 210.593 27.0677C211.255 26.406 212.098 25.9554 213.016 25.7728C213.933 25.5903 214.885 25.684 215.749 26.0421C216.614 26.4002 217.353 27.0066 217.873 27.7847C218.393 28.5628 218.67 29.4776 218.67 30.4134C218.673 31.0355 218.553 31.652 218.316 32.2274C218.079 32.8027 217.731 33.3254 217.291 33.7653C216.851 34.2053 216.328 34.5536 215.753 34.7904C215.177 35.0272 214.561 35.1477 213.939 35.1448Z" fill="#341656"/>
</g>
<defs>
<clipPath id="clip0_30_20">
<rect width="239.77" height="50" fill="white"/>
</clipPath>
</defs>
</svg>
